<svg width="230" height="64" viewBox="0 0 230 64" fill="none" xmlns="http://www.w3.org/2000/svg">
<path d="M16.127 33.8274V30.7592L30.7009 24.0263V27.8082L20.3458 32.2507L20.463 32.0483V32.5384L20.3458 32.3359L30.7009 36.7784V40.5604L16.127 33.8274ZM35.6627 21.1818H40.4994L46.9767 36.9915H47.2323L53.7096 21.1818H58.5463V43H54.7536V28.0107H54.5512L48.5214 42.9361H45.6876L39.6578 27.9787H39.4553V43H35.6627V21.1818ZM78.074 33.8274L63.5001 40.5604V36.7784L73.8552 32.3359L73.738 32.5384V32.0483L73.8552 32.2507L63.5001 27.8082V24.0263L78.074 30.7592V33.8274Z" fill="#32DE84"/>
<path d="M90.4772 43V21.1818H104.668V24.495H94.4296V30.4183H103.932V33.7315H94.4296V39.6868H104.753V43H90.4772ZM112.386 21.1818V43H108.529V21.1818H112.386ZM123.468 49.4773C122.083 49.4773 120.894 49.2891 119.899 48.9126C118.905 48.5433 118.106 48.0462 117.502 47.4212C116.899 46.7962 116.479 46.1037 116.245 45.3438L119.718 44.5021C119.874 44.8217 120.102 45.1378 120.4 45.4503C120.698 45.7699 121.1 46.0327 121.604 46.2386C122.115 46.4517 122.758 46.5582 123.532 46.5582C124.626 46.5582 125.531 46.2919 126.249 45.7592C126.966 45.2337 127.325 44.3672 127.325 43.1598V40.0597H127.133C126.934 40.4574 126.643 40.8658 126.259 41.2848C125.883 41.7038 125.382 42.0554 124.757 42.3395C124.139 42.6236 123.362 42.7656 122.424 42.7656C121.167 42.7656 120.027 42.4709 119.004 41.8814C117.989 41.2848 117.179 40.397 116.575 39.218C115.979 38.032 115.68 36.5476 115.68 34.7649C115.68 32.968 115.979 31.4517 116.575 30.2159C117.179 28.973 117.992 28.032 119.015 27.3928C120.038 26.7464 121.178 26.4233 122.435 26.4233C123.394 26.4233 124.182 26.5866 124.8 26.9134C125.425 27.233 125.922 27.62 126.291 28.0746C126.661 28.522 126.941 28.9446 127.133 29.3423H127.346V26.6364H131.149V43.2663C131.149 44.6655 130.815 45.8232 130.148 46.7393C129.48 47.6555 128.568 48.3409 127.41 48.7955C126.252 49.25 124.938 49.4773 123.468 49.4773ZM123.5 39.7401C124.317 39.7401 125.013 39.5412 125.588 39.1435C126.163 38.7457 126.6 38.174 126.899 37.4283C127.197 36.6825 127.346 35.7876 127.346 34.7436C127.346 33.7138 127.197 32.8118 126.899 32.0376C126.607 31.2635 126.174 30.6634 125.599 30.2372C125.031 29.804 124.331 29.5874 123.5 29.5874C122.641 29.5874 121.923 29.8111 121.348 30.2585C120.773 30.706 120.34 31.3203 120.048 32.1016C119.757 32.8757 119.612 33.7564 119.612 34.7436C119.612 35.745 119.757 36.6222 120.048 37.375C120.347 38.1207 120.783 38.7031 121.359 39.1222C121.941 39.5341 122.655 39.7401 123.5 39.7401ZM142.239 43.3196C140.641 43.3196 139.256 42.968 138.085 42.2649C136.913 41.5618 136.004 40.5781 135.357 39.3139C134.718 38.0497 134.399 36.5724 134.399 34.8821C134.399 33.1918 134.718 31.7109 135.357 30.4396C136.004 29.1683 136.913 28.1811 138.085 27.478C139.256 26.7749 140.641 26.4233 142.239 26.4233C143.837 26.4233 145.222 26.7749 146.394 27.478C147.566 28.1811 148.472 29.1683 149.111 30.4396C149.757 31.7109 150.08 33.1918 150.08 34.8821C150.08 36.5724 149.757 38.0497 149.111 39.3139C148.472 40.5781 147.566 41.5618 146.394 42.2649C145.222 42.968 143.837 43.3196 142.239 43.3196ZM142.261 40.2301C143.127 40.2301 143.852 39.9922 144.434 39.5163C145.016 39.0334 145.45 38.3871 145.734 37.5774C146.025 36.7678 146.171 35.8658 146.171 34.8714C146.171 33.87 146.025 32.9645 145.734 32.1548C145.45 31.3381 145.016 30.6882 144.434 30.2053C143.852 29.7223 143.127 29.4808 142.261 29.4808C141.373 29.4808 140.634 29.7223 140.045 30.2053C139.462 30.6882 139.026 31.3381 138.734 32.1548C138.45 32.9645 138.308 33.87 138.308 34.8714C138.308 35.8658 138.45 36.7678 138.734 37.5774C139.026 38.3871 139.462 39.0334 140.045 39.5163C140.634 39.9922 141.373 40.2301 142.261 40.2301ZM157.21 33.4119V43H153.354V21.1818H157.125V29.4169H157.317C157.7 28.4936 158.293 27.7656 159.096 27.233C159.905 26.6932 160.935 26.4233 162.185 26.4233C163.322 26.4233 164.312 26.6612 165.158 27.1371C166.003 27.6129 166.656 28.3089 167.118 29.2251C167.587 30.1413 167.821 31.2599 167.821 32.581V43H163.964V33.1776C163.964 32.0767 163.68 31.2209 163.112 30.6101C162.551 29.9922 161.763 29.6832 160.747 29.6832C160.065 29.6832 159.454 29.8324 158.915 30.1307C158.382 30.4219 157.963 30.8445 157.658 31.3984C157.359 31.9524 157.21 32.6236 157.21 33.4119ZM176.461 43.3303C175.424 43.3303 174.49 43.1456 173.659 42.7763C172.835 42.3999 172.182 41.8459 171.699 41.1143C171.223 40.3828 170.985 39.4808 170.985 38.4084C170.985 37.4851 171.155 36.7216 171.496 36.1179C171.837 35.5142 172.302 35.0312 172.892 34.669C173.481 34.3068 174.146 34.0334 174.884 33.8487C175.63 33.657 176.4 33.5185 177.196 33.4332C178.155 33.3338 178.932 33.245 179.529 33.1669C180.126 33.0817 180.559 32.9538 180.829 32.7834C181.106 32.6058 181.244 32.3324 181.244 31.9631V31.8991C181.244 31.0966 181.006 30.4751 180.53 30.0348C180.055 29.5945 179.369 29.3743 178.474 29.3743C177.53 29.3743 176.78 29.5803 176.226 29.9922C175.68 30.4041 175.31 30.8906 175.119 31.4517L171.518 30.9403C171.802 29.946 172.271 29.1151 172.924 28.4474C173.577 27.7727 174.376 27.2685 175.321 26.9347C176.266 26.5938 177.31 26.4233 178.453 26.4233C179.241 26.4233 180.026 26.5156 180.807 26.7003C181.589 26.8849 182.302 27.1903 182.949 27.6165C183.595 28.0355 184.114 28.6072 184.504 29.3317C184.902 30.0561 185.101 30.9616 185.101 32.0483V43H181.393V40.7521H181.266C181.031 41.2067 180.701 41.6328 180.275 42.0305C179.856 42.4212 179.327 42.7372 178.687 42.9787C178.055 43.2131 177.313 43.3303 176.461 43.3303ZM177.462 40.4964C178.236 40.4964 178.908 40.3437 179.476 40.0384C180.044 39.7259 180.481 39.3139 180.786 38.8026C181.099 38.2912 181.255 37.7337 181.255 37.13V35.2017C181.134 35.3011 180.928 35.3935 180.637 35.4787C180.353 35.5639 180.033 35.6385 179.678 35.7024C179.323 35.7663 178.972 35.8232 178.623 35.8729C178.275 35.9226 177.974 35.9652 177.718 36.0007C177.143 36.0788 176.628 36.2067 176.173 36.3842C175.719 36.5618 175.36 36.8104 175.097 37.13C174.834 37.4425 174.703 37.8473 174.703 38.3445C174.703 39.0547 174.962 39.5909 175.481 39.9531C175.999 40.3153 176.66 40.4964 177.462 40.4964ZM188.979 43V26.6364H192.718V29.3636H192.888C193.187 28.419 193.698 27.6911 194.422 27.1797C195.154 26.6612 195.989 26.402 196.926 26.402C197.139 26.402 197.377 26.4126 197.64 26.4339C197.91 26.4482 198.133 26.473 198.311 26.5085V30.0561C198.148 29.9993 197.888 29.9496 197.533 29.907C197.185 29.8572 196.848 29.8324 196.521 29.8324C195.818 29.8324 195.186 29.9851 194.625 30.2905C194.071 30.5888 193.634 31.0043 193.315 31.5369C192.995 32.0696 192.835 32.6839 192.835 33.38V43H188.979ZM203.768 49.1364C203.243 49.1364 202.756 49.0938 202.309 49.0085C201.868 48.9304 201.517 48.8381 201.254 48.7315L202.149 45.7273C202.71 45.8906 203.211 45.9688 203.651 45.9616C204.091 45.9545 204.478 45.8161 204.812 45.5462C205.153 45.2834 205.441 44.843 205.675 44.2251L206.005 43.3409L200.071 26.6364H204.162L207.934 38.9943H208.104L211.886 26.6364H215.988L209.436 44.9815C209.13 45.848 208.726 46.5902 208.221 47.2081C207.717 47.8331 207.099 48.3089 206.368 48.6357C205.643 48.9695 204.777 49.1364 203.768 49.1364Z" fill="black"/>
</svg>
